<?xml version="1.0" encoding="UTF-8"?>
<svg xmlns="http://www.w3.org/2000/svg" xmlns:xlink="http://www.w3.org/1999/xlink" width="20pt" height="20pt" viewBox="0 0 25 25" version="1.1">
<g id="surface1">
<path style=" stroke:none;fill-rule:nonzero;fill:#6c757d;fill-opacity:1;" d="M 22.582031 1.210938 L 2.417969 1.210938 C 1.089844 1.210938 0 2.296875 0 3.628906 C 0 4.960938 1.089844 6.046875 2.417969 6.046875 L 22.582031 6.046875 C 23.910156 6.046875 25 4.960938 25 3.628906 C 25 2.296875 23.910156 1.210938 22.582031 1.210938 Z M 22.582031 1.210938 "/>
<path style=" stroke:none;fill-rule:nonzero;fill:#6c757d;fill-opacity:1;" d="M 22.582031 10.082031 L 2.417969 10.082031 C 1.089844 10.082031 0 11.167969 0 12.5 C 0 13.832031 1.089844 14.917969 2.417969 14.917969 L 22.582031 14.917969 C 23.910156 14.917969 25 13.832031 25 12.5 C 25 11.167969 23.910156 10.082031 22.582031 10.082031 Z M 22.582031 10.082031 "/>
<path style=" stroke:none;fill-rule:nonzero;fill:#6c757d;fill-opacity:1;" d="M 22.582031 18.953125 L 2.417969 18.953125 C 1.089844 18.953125 0 20.039062 0 21.371094 C 0 22.703125 1.089844 23.789062 2.417969 23.789062 L 22.582031 23.789062 C 23.910156 23.789062 25 22.703125 25 21.371094 C 25 20.039062 23.910156 18.953125 22.582031 18.953125 Z M 22.582031 18.953125 "/>
</g>
</svg>
